<svg width="1440" height="1024" viewBox="0 0 1440 1024" fill="none" xmlns="http://www.w3.org/2000/svg">
<g opacity="0.5" clip-path="url(#clip0_15_6)">
<rect width="1440" height="1024" fill="url(#paint0_linear_15_6)" fill-opacity="0.4"/>
<path opacity="0.8" d="M539 499.5C230.134 1012.69 -326.089 1140 -643.155 1140C-830.774 1140 -101.176 771.016 -101.176 431.232C-101.176 91.449 50.9188 -184 238.538 -184C445.977 12.0032 692.5 218 539 499.5Z" fill="url(#paint1_linear_15_6)"/>
<ellipse opacity="0.8" cx="1279" cy="856.5" rx="229" ry="217.5" fill="url(#paint2_radial_15_6)" fill-opacity="0.9"/>
<g clip-path="url(#clip1_15_6)">
<path d="M778 995.905C778 996.776 778.7 997.476 779.571 997.476H1469.11C1469.98 997.476 1470.68 996.776 1470.68 995.905C1470.68 995.033 1469.98 994.334 1469.11 994.334H779.571C778.7 994.334 778 995.033 778 995.905Z" fill="#3F3C57"/>
<path d="M1002.98 468.441L1010.47 502.658L994.525 550.285L968.829 499.114L972.394 469.427L1002.98 468.441Z" fill="#FDB4B4"/>
<path d="M1011.87 500.886H967.5V554.494H1011.87V500.886Z" fill="#75D8E4"/>
<path d="M993.623 485.677C1010.36 485.677 1023.92 472.111 1023.92 455.376C1023.92 438.642 1010.36 425.076 993.623 425.076C976.889 425.076 963.323 438.642 963.323 455.376C963.323 472.111 976.889 485.677 993.623 485.677Z" fill="#FDB4B4"/>
<path d="M967.248 477.908C967.248 477.908 944.662 436.195 965.026 416.122C985.39 396.049 1001.74 409.276 1001.74 409.276L1011.07 408.899C1011.07 408.899 1013.02 416.245 1016.16 412.268C1019.3 408.291 1024.97 422.775 1024.97 422.775C1035.5 441.737 998.999 445.984 998.999 445.984C998.999 445.984 1001.63 454.38 998.956 456.139C996.277 457.897 989.119 464.511 989.119 464.511L982.712 469.35L978.905 463.549C978.905 463.549 974.928 460.41 972.919 461.728C970.91 463.047 973.673 480.398 973.673 480.398L967.248 477.908Z" fill="#2E2E41"/>
<path d="M930.898 784.779L919.314 957.583L947.793 958.548L985.442 786.227L930.898 784.779Z" fill="#2E2E41"/>
<path d="M999.923 783.814L988.339 956.617L1016.82 957.583L1054.47 785.262L999.923 783.814Z" fill="#2E2E41"/>
<path d="M923.923 824.26L939.083 636.052L915.834 538.048C913.829 523.48 923.008 509.695 937.175 505.937L959.925 499.901L969.995 489.831L992.898 540.409L1007.2 489.87L1018.36 497.983L1051.44 512.58L1051.43 512.922L1046.12 631.31L1057.97 822.584L1057.44 822.591L923.923 824.26Z" fill="#E8E9EA"/>
<path d="M1014.99 955.619L1023.23 980.236C1023.23 980.236 1055.5 984.622 1056 994.61C1056.5 1004.6 1012.15 998.816 986.186 1000.12C960.219 1001.43 981.835 973.306 981.835 973.306L984.602 957.146L1014.99 955.619Z" fill="#2E2E41"/>
<path d="M947.646 953.847L955.892 978.464C955.892 978.464 988.153 982.85 988.655 992.838C989.157 1002.83 944.811 997.044 918.844 998.349C892.877 999.654 914.492 971.533 914.492 971.533L917.26 955.374L947.646 953.847Z" fill="#2E2E41"/>
<path d="M907.415 724.305C907.065 719.451 907.883 714.584 909.8 710.112L903.646 659.626L927.754 657.4L931.401 708.852C933.824 713.07 935.201 717.807 935.418 722.667C936.127 734.824 930.433 745.04 922.699 745.491C914.965 745.943 908.122 736.457 907.415 724.305Z" fill="#FDB4B4"/>
<path d="M1060.11 731.715C1059.81 726.858 1060.68 722.001 1062.65 717.549L1057.05 666.999L1081.18 665.036L1084.26 716.525C1086.64 720.769 1087.97 725.521 1088.13 730.383C1088.71 742.547 1082.9 752.7 1075.16 753.067C1067.42 753.434 1060.69 743.875 1060.11 731.715Z" fill="#FDB4B4"/>
<path d="M903.547 704.058L903.465 703.623L890.901 636.208L905.747 526.431C907.072 516.63 915.823 509.57 925.692 510.359C930.846 510.772 935.47 513.216 938.713 517.243C941.957 521.27 943.36 526.309 942.665 531.432L931.491 613.764L938.526 701.825L903.547 704.058Z" fill="#E8E9EA"/>
<path d="M1052.66 702.476L1027.4 533.855C1026.09 528.911 1026.86 523.736 1029.58 519.339C1032.3 514.942 1036.58 511.944 1041.65 510.897C1051.34 508.894 1060.9 514.815 1063.43 524.376L1087.7 700.358L1052.66 702.476Z" fill="#E8E9EA"/>
<path d="M993.639 555.823C995.352 555.823 996.74 554.435 996.74 552.722C996.74 551.009 995.352 549.62 993.639 549.62C991.926 549.62 990.538 551.009 990.538 552.722C990.538 554.435 991.926 555.823 993.639 555.823Z" fill="#D6D7D8"/>
<path d="M993.639 579.304C995.352 579.304 996.74 577.916 996.74 576.203C996.74 574.49 995.352 573.102 993.639 573.102C991.926 573.102 990.538 574.49 990.538 576.203C990.538 577.916 991.926 579.304 993.639 579.304Z" fill="#D6D7D8"/>
<path d="M993.639 602.785C995.352 602.785 996.74 601.397 996.74 599.684C996.74 597.971 995.352 596.583 993.639 596.583C991.926 596.583 990.538 597.971 990.538 599.684C990.538 601.397 991.926 602.785 993.639 602.785Z" fill="#D6D7D8"/>
<path d="M993.639 626.267C995.352 626.267 996.74 624.878 996.74 623.165C996.74 621.453 995.352 620.064 993.639 620.064C991.926 620.064 990.538 621.453 990.538 623.165C990.538 624.878 991.926 626.267 993.639 626.267Z" fill="#D6D7D8"/>
<path d="M993.639 649.748C995.352 649.748 996.74 648.359 996.74 646.647C996.74 644.934 995.352 643.545 993.639 643.545C991.926 643.545 990.538 644.934 990.538 646.647C990.538 648.359 991.926 649.748 993.639 649.748Z" fill="#D6D7D8"/>
<path d="M993.639 673.229C995.352 673.229 996.74 671.841 996.74 670.128C996.74 668.415 995.352 667.027 993.639 667.027C991.926 667.027 990.538 668.415 990.538 670.128C990.538 671.841 991.926 673.229 993.639 673.229Z" fill="#D6D7D8"/>
<path d="M993.639 696.71C995.352 696.71 996.74 695.322 996.74 693.609C996.74 691.896 995.352 690.508 993.639 690.508C991.926 690.508 990.538 691.896 990.538 693.609C990.538 695.322 991.926 696.71 993.639 696.71Z" fill="#D6D7D8"/>
<path d="M993.639 720.192C995.352 720.192 996.74 718.803 996.74 717.09C996.74 715.378 995.352 713.989 993.639 713.989C991.926 713.989 990.538 715.378 990.538 717.09C990.538 718.803 991.926 720.192 993.639 720.192Z" fill="#D6D7D8"/>
<path d="M993.643 738.356L934.963 730.536L933.833 730.386L903.843 661.236L885.983 620.066H932.503L993.643 738.356Z" fill="#75D8E4"/>
<path d="M1228.92 475.964L1266.23 455.526V513.92H1223.08L1228.92 475.964Z" fill="#2E2E41"/>
<path d="M1274.22 488.983L1277.67 517.651L1252.85 567.066L1237.45 521.074L1244.69 488.03L1274.22 488.983Z" fill="#FDB4B4"/>
<path d="M1278.95 519.362H1236.11V571.131H1278.95V519.362Z" fill="#75D8E4"/>
<path d="M1314.3 793.514L1325.48 960.388L1297.98 961.32L1261.62 794.913L1314.3 793.514Z" fill="#2E2E41"/>
<path d="M1247.64 792.582L1258.83 959.456L1231.33 960.388L1194.97 793.98L1247.64 792.582Z" fill="#2E2E41"/>
<path d="M1343.35 828.907L1342.7 828.905L1167.5 828.333L1167.66 827.713L1212.7 649.251L1201.42 559.188C1199.28 542.123 1208.41 525.992 1224.15 519.05L1229.83 516.544L1240.62 508.696L1254.43 557.479L1276.54 508.658L1286.27 518.396L1308.24 524.223C1321.93 527.855 1330.8 541.175 1328.87 555.206L1328.85 555.304L1295.3 651.013L1343.35 828.907Z" fill="#E8E9EA"/>
<path d="M1233.09 958.492L1262.44 959.967L1265.11 975.572C1265.11 975.572 1285.98 1002.73 1260.91 1001.47C1235.83 1000.21 1193 1005.79 1193.49 996.145C1193.97 986.5 1225.13 982.264 1225.13 982.264L1233.09 958.492Z" fill="#2E2E41"/>
<path d="M1298.12 956.781L1327.47 958.255L1330.14 973.86C1330.14 973.86 1351.01 1001.02 1325.94 999.755C1300.86 998.495 1258.04 1004.08 1258.52 994.433C1259.01 984.789 1290.16 980.553 1290.16 980.553L1298.12 956.781Z" fill="#2E2E41"/>
<path d="M1324.99 733.404C1324.31 745.139 1317.7 754.299 1310.23 753.863C1302.77 753.427 1297.27 743.562 1297.95 731.822C1298.16 727.129 1299.49 722.554 1301.83 718.481L1305.35 668.794L1328.63 670.944L1322.69 719.697C1324.54 724.017 1325.33 728.716 1324.99 733.404Z" fill="#FDB4B4"/>
<path d="M1205.36 728.941C1204.42 740.659 1197.62 749.677 1190.16 749.082C1182.71 748.487 1177.42 738.507 1178.35 726.785C1178.66 722.097 1180.09 717.552 1182.52 713.529L1187.09 663.929L1210.32 666.573L1203.34 715.189C1205.1 719.547 1205.79 724.262 1205.36 728.941Z" fill="#FDB4B4"/>
<path d="M1328.74 713.87L1294.93 711.711L1294.97 711.205L1301.73 626.656L1290.94 547.151C1290.27 542.199 1291.62 537.328 1294.76 533.436C1297.89 529.543 1302.36 527.181 1307.34 526.782C1316.88 526.03 1325.34 532.844 1326.62 542.317L1340.96 648.33L1340.94 648.409L1328.74 713.87Z" fill="#E8E9EA"/>
<path d="M1210.98 710.631L1177.12 708.584L1177.19 708.049L1200.55 538.679C1203 529.376 1212.25 523.655 1221.61 525.59C1226.51 526.603 1230.65 529.501 1233.28 533.751C1235.91 538.001 1236.65 543.002 1235.37 547.834L1210.98 710.631Z" fill="#E8E9EA"/>
<path d="M1253.71 572.414C1255.36 572.414 1256.7 571.073 1256.7 569.419C1256.7 567.765 1255.36 566.425 1253.71 566.425C1252.05 566.425 1250.71 567.765 1250.71 569.419C1250.71 571.073 1252.05 572.414 1253.71 572.414Z" fill="#D6D7D8"/>
<path d="M1253.71 595.09C1255.36 595.09 1256.7 593.749 1256.7 592.095C1256.7 590.441 1255.36 589.1 1253.71 589.1C1252.05 589.1 1250.71 590.441 1250.71 592.095C1250.71 593.749 1252.05 595.09 1253.71 595.09Z" fill="#D6D7D8"/>
<path d="M1253.71 617.765C1255.36 617.765 1256.7 616.424 1256.7 614.77C1256.7 613.116 1255.36 611.776 1253.71 611.776C1252.05 611.776 1250.71 613.116 1250.71 614.77C1250.71 616.424 1252.05 617.765 1253.71 617.765Z" fill="#D6D7D8"/>
<path d="M1253.71 640.441C1255.36 640.441 1256.7 639.1 1256.7 637.446C1256.7 635.792 1255.36 634.451 1253.71 634.451C1252.05 634.451 1250.71 635.792 1250.71 637.446C1250.71 639.1 1252.05 640.441 1253.71 640.441Z" fill="#D6D7D8"/>
<path d="M1253.71 663.116C1255.36 663.116 1256.7 661.775 1256.7 660.121C1256.7 658.467 1255.36 657.127 1253.71 657.127C1252.05 657.127 1250.71 658.467 1250.71 660.121C1250.71 661.775 1252.05 663.116 1253.71 663.116Z" fill="#D6D7D8"/>
<path d="M1253.71 685.792C1255.36 685.792 1256.7 684.451 1256.7 682.797C1256.7 681.143 1255.36 679.802 1253.71 679.802C1252.05 679.802 1250.71 681.143 1250.71 682.797C1250.71 684.451 1252.05 685.792 1253.71 685.792Z" fill="#D6D7D8"/>
<path d="M1253.71 708.467C1255.36 708.467 1256.7 707.126 1256.7 705.472C1256.7 703.818 1255.36 702.478 1253.71 702.478C1252.05 702.478 1250.71 703.818 1250.71 705.472C1250.71 707.126 1252.05 708.467 1253.71 708.467Z" fill="#D6D7D8"/>
<path d="M1253.71 731.143C1255.36 731.143 1256.7 729.802 1256.7 728.148C1256.7 726.494 1255.36 725.153 1253.71 725.153C1252.05 725.153 1250.71 726.494 1250.71 728.148C1250.71 729.802 1252.05 731.143 1253.71 731.143Z" fill="#D6D7D8"/>
<path d="M1258.25 503.614C1273.73 503.614 1286.27 491.072 1286.27 475.601C1286.27 460.13 1273.73 447.589 1258.25 447.589C1242.78 447.589 1230.24 460.13 1230.24 475.601C1230.24 491.072 1242.78 503.614 1258.25 503.614Z" fill="#FDB4B4"/>
<path d="M1272.93 442.9C1274.28 445.63 1272.15 449.04 1269.33 450.188C1266.51 451.336 1263.33 450.871 1260.33 450.393C1257.32 449.915 1254.14 449.462 1251.33 450.63C1247.69 452.142 1245.64 455.933 1243.88 459.451C1240.58 466.019 1237.29 472.587 1233.99 479.155C1232.38 482.364 1230.73 485.717 1230.7 489.307C1230.65 495.897 1235.87 501.164 1238.69 507.124C1242.11 514.38 1241.83 523.273 1237.95 530.298C1234.07 537.323 1226.7 542.3 1218.73 543.268C1216.64 543.522 1214.42 543.495 1212.53 542.543C1210.65 541.591 1209.21 539.511 1209.56 537.429C1210.24 533.357 1216.46 532.405 1217.61 528.437C1218.2 526.366 1217.15 524.154 1215.72 522.536C1214.3 520.918 1212.5 519.656 1211.14 517.983C1208.01 514.124 1207.8 508.167 1210.65 504.098C1212.33 501.707 1214.93 499.931 1216.01 497.218C1216.93 494.906 1216.6 492.308 1216.25 489.843C1215.8 486.675 1215.35 483.507 1214.9 480.34C1214.37 476.644 1213.86 472.816 1214.89 469.23C1217.27 461.013 1226.55 457.154 1231.99 450.554C1234.52 447.487 1236.22 443.798 1238.81 440.786C1243.17 435.732 1250.02 432.943 1256.67 433.523C1263.31 434.103 1269.58 438.035 1272.99 443.767" fill="#2E2E41"/>
<path d="M1268.51 443.418C1267.14 443.908 1266.64 445.69 1267.03 447.089C1267.42 448.488 1268.46 449.6 1269.4 450.705C1280.08 463.202 1282.56 482.106 1275.47 496.937C1273.58 500.882 1271.07 504.594 1270.05 508.847C1269.31 511.941 1269.35 515.335 1267.64 518.014C1265.89 520.741 1262.43 522.569 1262.08 525.79C1261.86 527.857 1263.12 529.864 1264.81 531.076C1266.5 532.288 1268.57 532.843 1270.59 533.295C1275.87 534.47 1281.26 535.111 1286.66 535.206C1288.42 535.237 1290.24 535.199 1291.86 534.497C1293.47 533.796 1294.85 532.274 1294.87 530.513C1294.88 529.128 1294.08 527.851 1293.98 526.471C1293.68 522.334 1299.24 520.133 1300.33 516.129C1301.04 513.497 1299.64 510.788 1298.14 508.508C1296.64 506.229 1294.94 503.835 1294.97 501.108C1295.01 498.497 1296.65 496.198 1297.28 493.666C1298.16 490.164 1297.08 486.501 1296.01 483.053C1295.1 480.122 1294.18 477.19 1293.27 474.259C1292.3 471.142 1291.33 468.026 1290.36 464.91C1288.67 459.47 1286.89 453.872 1283.23 449.508C1279.56 445.145 1273.49 442.285 1268.08 444.066" fill="#2E2E41"/>
<path d="M1287.6 551.967L1285.68 551.408C1289.68 537.692 1281.06 512.098 1280.97 511.841L1282.86 511.195C1283.23 512.269 1291.78 537.651 1287.6 551.967Z" fill="#3F3C57"/>
<path d="M1286.64 567.721C1291.26 567.721 1295 563.981 1295 559.367C1295 554.753 1291.26 551.013 1286.64 551.013C1282.03 551.013 1278.29 554.753 1278.29 559.367C1278.29 563.981 1282.03 567.721 1286.64 567.721Z" fill="#3F3C57"/>
<path d="M1231.75 588.943H1226.68C1226.13 588.943 1225.68 588.495 1225.68 587.943C1225.68 587.391 1226.13 586.943 1226.68 586.943H1231.75C1233.15 586.943 1234.46 586.399 1235.44 585.411C1236.43 584.423 1236.97 583.11 1236.97 581.714L1236.91 550.508C1236.91 543.729 1231.39 538.215 1224.62 538.215C1217.84 538.215 1212.32 543.729 1212.32 550.506L1212.39 579.715C1212.39 582.565 1214.71 584.901 1217.56 584.923L1221.04 584.949C1221.59 584.954 1222.04 585.404 1222.03 585.957C1222.03 586.506 1221.58 586.949 1221.03 586.949H1221.03L1217.55 586.923C1213.61 586.893 1210.39 583.661 1210.39 579.719L1210.32 550.508C1210.32 542.626 1216.73 536.215 1224.62 536.215C1232.5 536.215 1238.91 542.626 1238.91 550.506L1238.97 581.71C1238.97 583.641 1238.22 585.457 1236.86 586.823C1235.5 588.19 1233.68 588.943 1231.75 588.943Z" fill="#3F3C57"/>
<path d="M1221.03 589.494C1222.99 589.494 1224.58 587.907 1224.58 585.949C1224.58 583.992 1222.99 582.405 1221.03 582.405C1219.08 582.405 1217.49 583.992 1217.49 585.949C1217.49 587.907 1219.08 589.494 1221.03 589.494Z" fill="#3F3C57"/>
<path d="M1226.68 591.487C1228.64 591.487 1230.23 589.9 1230.23 587.943C1230.23 585.986 1228.64 584.399 1226.68 584.399C1224.73 584.399 1223.14 585.986 1223.14 587.943C1223.14 589.9 1224.73 591.487 1226.68 591.487Z" fill="#3F3C57"/>
<path d="M1022.07 536.978L1020.15 536.418C1024.15 522.703 1015.62 496.712 1015.54 496.455L1017.94 498.264C1018.3 499.338 1026.25 522.662 1022.07 536.978Z" fill="#3F3C57"/>
<path d="M954.581 539.414L956.501 538.855C952.501 525.14 961.126 499.545 961.213 499.288L959.159 500.664C958.793 501.737 950.406 525.099 954.581 539.414Z" fill="#3F3C57"/>
<path d="M1021.11 552.731C1025.73 552.731 1029.47 548.991 1029.47 544.377C1029.47 539.763 1025.73 536.023 1021.11 536.023C1016.5 536.023 1012.76 539.763 1012.76 544.377C1012.76 548.991 1016.5 552.731 1021.11 552.731Z" fill="#3F3C57"/>
<path d="M963.488 590.789H958.421C957.869 590.789 957.421 590.341 957.421 589.789C957.421 589.237 957.869 588.789 958.421 588.789H963.488C964.884 588.789 966.196 588.245 967.182 587.257C968.167 586.269 968.709 584.956 968.706 583.56L968.645 552.354C968.645 545.575 963.131 540.061 956.354 540.061C949.577 540.061 944.062 545.575 944.062 552.352L944.123 581.561C944.129 584.411 946.453 586.747 949.302 586.769L952.78 586.795C953.331 586.8 953.776 587.25 953.772 587.803C953.768 588.352 953.321 588.795 952.772 588.795H952.764L949.286 588.769C945.345 588.739 942.131 585.507 942.123 581.565L942.062 552.354C942.062 544.472 948.473 538.061 956.354 538.061C964.234 538.061 970.645 544.472 970.645 552.352L970.706 583.556C970.71 585.487 969.961 587.303 968.597 588.669C967.234 590.036 965.418 590.789 963.488 590.789Z" fill="#3F3C57"/>
<path d="M952.772 591.34C954.73 591.34 956.317 589.753 956.317 587.795C956.317 585.838 954.73 584.251 952.772 584.251C950.815 584.251 949.228 585.838 949.228 587.795C949.228 589.753 950.815 591.34 952.772 591.34Z" fill="#3F3C57"/>
<path d="M958.421 593.333C960.379 593.333 961.965 591.747 961.965 589.789C961.965 587.832 960.379 586.245 958.421 586.245C956.464 586.245 954.877 587.832 954.877 589.789C954.877 591.747 956.464 593.333 958.421 593.333Z" fill="#3F3C57"/>
</g>
</g>
<defs>
<linearGradient id="paint0_linear_15_6" x1="598" y1="308.5" x2="1209.51" y2="751.088" gradientUnits="userSpaceOnUse">
<stop stop-color="#A7FBFB"/>
<stop offset="1" stop-color="#72FFFF"/>
</linearGradient>
<linearGradient id="paint1_linear_15_6" x1="437.5" y1="455" x2="296.986" y2="293.488" gradientUnits="userSpaceOnUse">
<stop stop-color="#58FBFB"/>
<stop offset="1" stop-color="#9AFFFF"/>
</linearGradient>
<radialGradient id="paint2_radial_15_6" cx="0" cy="0" r="1" gradientUnits="userSpaceOnUse" gradientTransform="translate(1215.5 816.5) rotate(35.3834) scale(215.873 227.287)">
<stop stop-color="#A8F1FB"/>
<stop offset="1" stop-color="#2CDDF5"/>
</radialGradient>
<clipPath id="clip0_15_6">
<rect width="1440" height="1024" fill="white"/>
</clipPath>
<clipPath id="clip1_15_6">
<rect width="692.68" height="596.951" fill="white" transform="translate(778 405)"/>
</clipPath>
</defs>
</svg>
